# Blender v2.83.0 OBJ File: 'glas.blend'
# www.blender.org
mtllib halfglas.mtl
o Cylinder.001
v 0.000000 -0.587958 -1.000000
v -0.000000 1.620025 -0.896823
v 0.195090 -0.587958 -0.980785
v 0.174962 1.620025 -0.879591
v 0.382683 -0.587958 -0.923880
v 0.343199 1.620025 -0.828557
v 0.555570 -0.587958 -0.831470
v 0.498248 1.620025 -0.745681
v 0.707107 -0.587958 -0.707107
v 0.634150 1.620025 -0.634150
v 0.831470 -0.587958 -0.555570
v 0.745681 1.620025 -0.498248
v 0.923880 -0.587958 -0.382683
v 0.828557 1.620025 -0.343199
v 0.980785 -0.587958 -0.195090
v 0.879591 1.620025 -0.174962
v 1.000000 -0.587958 -0.000000
v 0.896823 1.620025 -0.000000
v -1.000000 -0.587958 -0.000001
v -0.896823 1.620025 -0.000001
v -0.980785 -0.587958 -0.195091
v -0.879591 1.620025 -0.174962
v -0.923879 -0.587958 -0.382684
v -0.828556 1.620025 -0.343200
v -0.831469 -0.587958 -0.555571
v -0.745681 1.620025 -0.498249
v -0.707106 -0.587958 -0.707108
v -0.634149 1.620025 -0.634151
v -0.555569 -0.587958 -0.831470
v -0.498247 1.620025 -0.745682
v -0.382682 -0.587958 -0.923880
v -0.343198 1.620025 -0.828557
v -0.195089 -0.587958 -0.980786
v -0.174960 1.620025 -0.879591
v 0.195090 1.620025 -0.980785
v 0.000000 1.620025 -1.000000
v 0.382683 1.620025 -0.923880
v 0.555570 1.620025 -0.831470
v 0.707107 1.620025 -0.707107
v 0.831470 1.620025 -0.555570
v 0.923880 1.620025 -0.382683
v 0.980785 1.620025 -0.195090
v 1.000000 1.620025 -0.000000
v -1.000000 1.620025 -0.000001
v -0.980785 1.620025 -0.195091
v -0.923879 1.620025 -0.382684
v -0.831469 1.620025 -0.555571
v -0.707106 1.620025 -0.707108
v -0.555569 1.620025 -0.831470
v -0.382682 1.620025 -0.923880
v -0.195089 1.620025 -0.980786
v -0.000000 -0.550063 -0.896823
v 0.174961 -0.550063 -0.879591
v 0.343199 -0.550063 -0.828557
v 0.498248 -0.550063 -0.745681
v 0.634150 -0.550063 -0.634150
v 0.745681 -0.550063 -0.498248
v 0.828557 -0.550063 -0.343199
v 0.879591 -0.550063 -0.174962
v 0.896823 -0.550063 -0.000000
v -0.896823 -0.550063 -0.000001
v -0.879591 -0.550063 -0.174962
v -0.828556 -0.550063 -0.343200
v -0.745681 -0.550063 -0.498249
v -0.634149 -0.550063 -0.634151
v -0.498247 -0.550063 -0.745682
v -0.343198 -0.550063 -0.828557
v -0.174960 -0.550063 -0.879591
v 0.000000 -0.742975 -1.000000
v 0.195090 -0.742975 -0.980785
v 0.382683 -0.742975 -0.923880
v 0.555570 -0.742975 -0.831470
v 0.707107 -0.742975 -0.707107
v 0.831470 -0.742975 -0.555570
v 0.923880 -0.742975 -0.382683
v 0.980785 -0.742975 -0.195090
v 1.000000 -0.742975 -0.000000
v -1.000000 -0.742975 -0.000001
v -0.980785 -0.742975 -0.195091
v -0.923879 -0.742975 -0.382684
v -0.831469 -0.742975 -0.555571
v -0.707106 -0.742975 -0.707108
v -0.555569 -0.742975 -0.831470
v -0.382682 -0.742975 -0.923880
v -0.195089 -0.742975 -0.980786
vt 1.000000 1.000000
vt 0.968750 0.500000
vt 1.000000 0.500000
vt 0.968750 1.000000
vt 0.937500 0.500000
vt 0.937500 1.000000
vt 0.906250 0.500000
vt 0.906250 1.000000
vt 0.875000 0.500000
vt 0.875000 1.000000
vt 0.843750 0.500000
vt 0.843750 1.000000
vt 0.812500 0.500000
vt 0.812500 1.000000
vt 0.781250 0.500000
vt 0.781250 1.000000
vt 0.750000 0.500000
vt 0.250000 1.000000
vt 0.218750 0.500000
vt 0.250000 0.500000
vt 0.218750 1.000000
vt 0.187500 0.500000
vt 0.187500 1.000000
vt 0.156250 0.500000
vt 0.156250 1.000000
vt 0.125000 0.500000
vt 0.125000 1.000000
vt 0.093750 0.500000
vt 0.093750 1.000000
vt 0.062500 0.500000
vt 0.062500 1.000000
vt 0.031250 0.500000
vt 0.031250 1.000000
vt 0.000000 0.500000
vt 0.291991 0.461102
vt 0.250000 0.490000
vt 0.250000 0.465238
vt 0.332368 0.448853
vt 0.296822 0.485388
vt 0.383337 0.449553
vt 0.341844 0.471731
vt 0.369580 0.428964
vt 0.419706 0.419706
vt 0.428964 0.369580
vt 0.402196 0.402196
vt 0.448854 0.332368
vt 0.449553 0.383337
vt 0.461102 0.291991
vt 0.471731 0.341844
vt 0.465238 0.250000
vt 0.485388 0.296822
vt 0.010000 0.250000
vt 0.034762 0.250000
vt 0.034762 0.250000
vt 0.014612 0.296822
vt 0.051147 0.332368
vt 0.038898 0.291991
vt 0.050447 0.383337
vt 0.028269 0.341844
vt 0.071037 0.369580
vt 0.080295 0.419706
vt 0.097804 0.402196
vt 0.116663 0.449553
vt 0.167632 0.448854
vt 0.130421 0.428964
vt 0.208010 0.461102
vt 0.158156 0.471731
vt 0.203179 0.485389
vt 0.490000 0.250000
vt 0.465238 0.250000
vt 0.051147 0.332368
vt 0.071037 0.369580
vt 0.291991 0.461102
vt 0.097804 0.402196
vt 0.332368 0.448853
vt 0.130421 0.428964
vt 0.369580 0.428964
vt 0.167632 0.448854
vt 0.402196 0.402196
vt 0.208010 0.461102
vt 0.428964 0.369580
vt 0.250000 0.465238
vt 0.448854 0.332368
vt 0.461102 0.291991
vt 0.250000 0.500000
vt 0.038898 0.291991
vt 1.000000 0.500000
vt 0.031250 0.500000
vt 0.156250 0.500000
vt 0.843750 0.500000
vt 0.968750 0.500000
vt 0.125000 0.500000
vt 0.812500 0.500000
vt 0.937500 0.500000
vt 0.093750 0.500000
vt 0.781250 0.500000
vt 0.218750 0.500000
vt 0.906250 0.500000
vt 0.062500 0.500000
vt 0.187500 0.500000
vt 0.875000 0.500000
vt 0.750000 1.000000
vt 0.000000 1.000000
vt 0.750000 0.500000
vt 0.000000 0.500000
vn 0.0000 0.6857 -0.7279
vn 0.1951 0.0000 -0.9808
vn 0.0000 0.0000 -1.0000
vn 0.1420 0.6857 -0.7139
vn 0.3827 0.0000 -0.9239
vn 0.2785 0.6857 -0.6725
vn 0.5556 0.0000 -0.8314
vn 0.4044 0.6857 -0.6052
vn 0.7071 0.0000 -0.7071
vn 0.5147 0.6857 -0.5147
vn 0.8314 0.0000 -0.5556
vn 0.6052 0.6857 -0.4044
vn 0.9239 0.0000 -0.3827
vn 0.6725 0.6857 -0.2785
vn 0.9808 0.0000 -0.1951
vn 0.7139 0.6857 -0.1420
vn 0.7409 0.0000 0.6715
vn -0.6076 0.5723 0.5507
vn -0.9808 0.0000 -0.1951
vn -0.7409 0.0000 0.6715
vn -0.7139 0.6857 -0.1420
vn -0.9239 0.0000 -0.3827
vn -0.6725 0.6857 -0.2785
vn -0.8314 0.0000 -0.5556
vn -0.6052 0.6857 -0.4044
vn -0.7071 0.0000 -0.7071
vn -0.5147 0.6857 -0.5147
vn -0.5556 0.0000 -0.8314
vn -0.4044 0.6857 -0.6052
vn -0.3827 0.0000 -0.9239
vn -0.2785 0.6857 -0.6725
vn -0.1951 0.0000 -0.9808
vn -0.1420 0.6857 -0.7139
vn -0.1333 0.7298 0.6705
vn 0.0000 0.7298 0.6836
vn -0.2616 0.7298 0.6316
vn -0.3798 0.7298 0.5684
vn -0.5684 0.7298 0.3798
vn -0.4834 0.7298 0.4834
vn -0.6316 0.7298 0.2616
vn -0.6705 0.7298 0.1333
vn -0.5458 0.5827 0.6022
vn 0.2939 0.2768 0.9149
vn 0.5458 0.5827 0.6022
vn 0.6316 0.7298 0.2616
vn 0.6705 0.7298 0.1334
vn 0.5684 0.7298 0.3798
vn 0.4834 0.7298 0.4834
vn 0.2616 0.7298 0.6316
vn 0.3798 0.7298 0.5684
vn 0.1333 0.7298 0.6705
vn 0.6076 0.5723 0.5507
vn -0.2939 0.2768 0.9149
vn 0.6725 0.6857 0.2785
vn 0.6052 0.6857 0.4044
vn -0.1420 0.6857 0.7139
vn 0.5147 0.6857 0.5147
vn -0.2785 0.6857 0.6725
vn 0.4044 0.6857 0.6052
vn -0.4044 0.6857 0.6052
vn 0.2785 0.6857 0.6725
vn -0.5147 0.6857 0.5147
vn 0.1420 0.6857 0.7139
vn -0.6052 0.6857 0.4044
vn 0.0000 0.6857 0.7279
vn -0.6725 0.6857 0.2785
vn -0.7139 0.6857 0.1420
vn 0.7139 0.6857 0.1420
usemtl None
s 1
f 36/1/1 3/2/2 1/3/3
f 35/4/4 5/5/5 3/2/2
f 37/6/6 7/7/7 5/5/5
f 38/8/8 9/9/9 7/7/7
f 39/10/10 11/11/11 9/9/9
f 40/12/12 13/13/13 11/11/11
f 41/14/14 15/15/15 13/13/13
f 42/16/16 17/17/17 15/15/15
f 44/18/18 21/19/19 19/20/20
f 45/21/21 23/22/22 21/19/19
f 46/23/23 25/24/24 23/22/22
f 47/25/25 27/26/26 25/24/24
f 48/27/27 29/28/28 27/26/26
f 49/29/29 31/30/30 29/28/28
f 50/31/31 33/32/32 31/30/30
f 51/33/33 1/34/3 33/32/32
f 4/35/34 36/36/1 2/37/35
f 6/38/36 35/39/4 4/35/34
f 6/38/36 38/40/8 37/41/6
f 8/42/37 39/43/10 38/40/8
f 12/44/38 39/43/10 10/45/39
f 14/46/40 40/47/12 12/44/38
f 16/48/41 41/49/14 14/46/40
f 18/50/42 42/51/16 16/48/41
f 44/52/18 61/53/43 20/54/44
f 20/54/44 45/55/21 44/52/18
f 24/56/45 45/55/21 22/57/46
f 24/56/45 47/58/25 46/59/23
f 26/60/47 48/61/27 47/58/25
f 28/62/48 49/63/29 48/61/27
f 32/64/49 49/63/29 30/65/50
f 34/66/51 50/67/31 32/64/49
f 2/37/35 51/68/33 34/66/51
f 43/69/52 60/70/53 17/17/17
f 22/57/46 63/71/54 24/56/45
f 24/56/45 64/72/55 26/60/47
f 2/37/35 53/73/56 4/35/34
f 26/60/47 65/74/57 28/62/48
f 4/35/34 54/75/58 6/38/36
f 28/62/48 66/76/59 30/65/50
f 6/38/36 55/77/60 8/42/37
f 30/65/50 67/78/61 32/64/49
f 8/42/37 56/79/62 10/45/39
f 32/64/49 68/80/63 34/66/51
f 10/45/39 57/81/64 12/44/38
f 34/66/51 52/82/65 2/37/35
f 12/44/38 58/83/66 14/46/40
f 14/46/40 59/84/67 16/48/41
f 16/48/41 60/70/53 18/50/42
f 60/70/53 61/53/43 78/85/20
f 20/54/44 62/86/68 22/57/46
f 52/82/65 65/74/57 61/53/43
f 3/2/2 69/87/3 1/3/3
f 1/34/3 85/88/32 33/32/32
f 27/26/26 81/89/24 25/24/24
f 13/13/13 74/90/11 11/11/11
f 5/5/5 70/91/2 3/2/2
f 29/28/28 82/92/26 27/26/26
f 15/15/15 75/93/13 13/13/13
f 21/19/19 78/85/20 19/20/20
f 7/7/7 71/94/5 5/5/5
f 31/30/30 83/95/28 29/28/28
f 17/17/17 76/96/15 15/15/15
f 23/22/22 79/97/19 21/19/19
f 9/9/9 72/98/7 7/7/7
f 33/32/32 84/99/30 31/30/30
f 25/24/24 80/100/22 23/22/22
f 11/11/11 73/101/9 9/9/9
f 36/1/1 35/4/4 3/2/2
f 35/4/4 37/6/6 5/5/5
f 37/6/6 38/8/8 7/7/7
f 38/8/8 39/10/10 9/9/9
f 39/10/10 40/12/12 11/11/11
f 40/12/12 41/14/14 13/13/13
f 41/14/14 42/16/16 15/15/15
f 42/16/16 43/102/52 17/17/17
f 44/18/18 45/21/21 21/19/19
f 45/21/21 46/23/23 23/22/22
f 46/23/23 47/25/25 25/24/24
f 47/25/25 48/27/27 27/26/26
f 48/27/27 49/29/29 29/28/28
f 49/29/29 50/31/31 31/30/30
f 50/31/31 51/33/33 33/32/32
f 51/33/33 36/103/1 1/34/3
f 4/35/34 35/39/4 36/36/1
f 6/38/36 37/41/6 35/39/4
f 6/38/36 8/42/37 38/40/8
f 8/42/37 10/45/39 39/43/10
f 12/44/38 40/47/12 39/43/10
f 14/46/40 41/49/14 40/47/12
f 16/48/41 42/51/16 41/49/14
f 18/50/42 43/69/52 42/51/16
f 44/52/18 19/20/20 61/53/43
f 20/54/44 22/57/46 45/55/21
f 24/56/45 46/59/23 45/55/21
f 24/56/45 26/60/47 47/58/25
f 26/60/47 28/62/48 48/61/27
f 28/62/48 30/65/50 49/63/29
f 32/64/49 50/67/31 49/63/29
f 34/66/51 51/68/33 50/67/31
f 2/37/35 36/36/1 51/68/33
f 43/69/52 18/50/42 60/70/53
f 22/57/46 62/86/68 63/71/54
f 24/56/45 63/71/54 64/72/55
f 2/37/35 52/82/65 53/73/56
f 26/60/47 64/72/55 65/74/57
f 4/35/34 53/73/56 54/75/58
f 28/62/48 65/74/57 66/76/59
f 6/38/36 54/75/58 55/77/60
f 30/65/50 66/76/59 67/78/61
f 8/42/37 55/77/60 56/79/62
f 32/64/49 67/78/61 68/80/63
f 10/45/39 56/79/62 57/81/64
f 34/66/51 68/80/63 52/82/65
f 12/44/38 57/81/64 58/83/66
f 14/46/40 58/83/66 59/84/67
f 16/48/41 59/84/67 60/70/53
f 19/20/20 78/85/20 61/53/43
f 78/85/20 77/104/17 60/70/53
f 77/104/17 17/17/17 60/70/53
f 20/54/44 61/53/43 62/86/68
f 54/75/58 53/73/56 55/77/60
f 53/73/56 52/82/65 55/77/60
f 52/82/65 68/80/63 67/78/61
f 67/78/61 66/76/59 65/74/57
f 65/74/57 64/72/55 63/71/54
f 63/71/54 62/86/68 65/74/57
f 62/86/68 61/53/43 65/74/57
f 61/53/43 60/70/53 59/84/67
f 59/84/67 58/83/66 57/81/64
f 57/81/64 56/79/62 55/77/60
f 52/82/65 67/78/61 65/74/57
f 61/53/43 59/84/67 57/81/64
f 57/81/64 55/77/60 61/53/43
f 55/77/60 52/82/65 61/53/43
f 3/2/2 70/91/2 69/87/3
f 1/34/3 69/105/3 85/88/32
f 27/26/26 82/92/26 81/89/24
f 13/13/13 75/93/13 74/90/11
f 5/5/5 71/94/5 70/91/2
f 29/28/28 83/95/28 82/92/26
f 15/15/15 76/96/15 75/93/13
f 21/19/19 79/97/19 78/85/20
f 7/7/7 72/98/7 71/94/5
f 31/30/30 84/99/30 83/95/28
f 17/17/17 77/104/17 76/96/15
f 23/22/22 80/100/22 79/97/19
f 9/9/9 73/101/9 72/98/7
f 33/32/32 85/88/32 84/99/30
f 25/24/24 81/89/24 80/100/22
f 11/11/11 74/90/11 73/101/9
